<?xml version="1.0" encoding="UTF-8"?>
<svg version="1.1" xmlns="http://www.w3.org/2000/svg" width="512" height="512">
<path d="M0 0 C1.37285156 -0.04253906 1.37285156 -0.04253906 2.7734375 -0.0859375 C9.41517386 0.98765824 14.12215994 6.5860133 18.67303467 11.16906738 C19.70153766 12.1928904 19.70153766 12.1928904 20.75081849 13.23739672 C23.0401496 15.51876986 25.32228838 17.80720176 27.60449219 20.09570312 C29.2470172 21.73551736 30.88996723 23.37490597 32.53330994 25.01390076 C36.99011743 29.46159384 41.44057931 33.91558616 45.88965893 38.37100792 C50.54488591 43.03129804 55.20499014 47.68670695 59.86431885 52.34289551 C68.18691542 60.66122143 76.50406018 68.98497965 84.81943181 77.31052715 C92.35938744 84.85942377 99.90457968 92.403053 107.45361328 99.94287109 C116.22374683 108.70230346 124.99051364 117.46508297 133.75234151 126.23282385 C138.3892295 130.87283294 143.02746549 135.51147283 147.66921234 140.1466217 C152.03050174 144.50214435 156.38688965 148.86251022 160.73950386 153.22670174 C162.33980453 154.82965224 163.94181947 156.43089335 165.54564476 158.03031731 C167.73004509 160.20927387 169.90822521 162.39426249 172.0848999 164.58093262 C172.72476987 165.21634114 173.36463983 165.85174966 174.02389979 166.50641298 C174.89691324 167.38724967 174.89691324 167.38724967 175.78756332 168.28588104 C176.29085781 168.78950023 176.79415229 169.29311942 177.31269813 169.8119998 C180.21942733 173.27402208 180.93740751 176.28089621 181 180.75 C181.02835938 181.66523438 181.05671875 182.58046875 181.0859375 183.5234375 C179.9997863 190.24284746 174.2785724 195.00887659 169.64784241 199.612854 C168.94558153 200.31894043 168.24332065 201.02502685 167.51977915 201.75250983 C165.17164779 204.11093814 162.81645289 206.46218017 160.46118164 208.81347656 C158.77373673 210.50526965 157.08670997 212.19747991 155.40007019 213.89007568 C151.29740596 218.00473731 147.19003498 222.11465414 143.08019645 226.22214916 C139.74015879 229.56040201 136.40189589 232.9004197 133.06487846 236.24169159 C132.5895019 236.71766334 132.11412535 237.19363509 131.62434344 237.68403022 C130.65857305 238.65101238 129.69280385 239.61799571 128.72703581 240.58498022 C119.67757091 249.6453124 110.62160624 258.69912618 101.56365656 267.75097463 C93.27688691 276.03257102 84.99836912 284.32236056 76.72369177 292.61603764 C68.22363907 301.13545766 59.71805128 309.64931478 51.20642942 318.15717673 C46.42923012 322.93246292 41.65426223 327.70993049 36.88508797 332.49323273 C32.40284897 336.98801327 27.9134619 341.47552774 23.41841316 345.95749664 C21.76823997 347.60529685 20.12063295 349.25567144 18.47576523 350.9087677 C16.23374348 353.1611966 13.98272209 355.40422546 11.72914124 357.64508057 C11.07719081 358.30440527 10.42524039 358.96372998 9.7535339 359.64303422 C5.37549475 363.96906407 2.25205819 366.15435928 -4.04345703 366.68310547 C-9.1771973 366.53909039 -13.82234243 365.00561841 -18.6796875 363.4453125 C-20.15800301 362.98589516 -20.15800301 362.98589516 -21.66618347 362.51719666 C-24.86399923 361.52142786 -28.05685221 360.5106258 -31.25 359.5 C-34.55545447 358.46749594 -37.86217792 357.43913197 -41.16902161 356.41108704 C-43.38245104 355.72278314 -45.59549475 355.03323759 -47.80815125 354.342453 C-57.6551046 351.27188681 -67.53588594 348.3262348 -77.4375 345.4375 C-78.88200025 345.01514204 -80.326499 344.59277894 -81.77099609 344.17041016 C-84.97145666 343.23558949 -88.17285917 342.30405117 -91.375 341.375 C-94.08221964 344.04221566 -96.74020574 346.67186789 -99.1015625 349.65234375 C-99.57021729 350.24088135 -100.03887207 350.82941895 -100.52172852 351.43579102 C-101.2534729 352.36476196 -101.2534729 352.36476196 -102 353.3125 C-102.52070068 353.96855225 -103.04140137 354.62460449 -103.57788086 355.30053711 C-105.18068651 357.32241496 -106.77858475 359.34807401 -108.375 361.375 C-108.85308105 361.98118164 -109.33116211 362.58736328 -109.82373047 363.21191406 C-112.56054626 366.68360669 -115.28997074 370.16103575 -118.01611328 373.64111328 C-120.29953303 376.55466827 -122.58750803 379.46464193 -124.875 382.375 C-125.79168823 383.54164973 -126.7083549 384.70831639 -127.625 385.875 C-140.45833333 402.20833333 -153.29166667 418.54166667 -166.125 434.875 C-166.57866943 435.45241943 -167.03233887 436.02983887 -167.49975586 436.62475586 C-168.41715009 437.7923041 -169.33463067 438.95978449 -170.25219727 440.12719727 C-172.53344245 443.0298279 -174.81321214 445.93359274 -177.08984375 448.83984375 C-182.31816607 455.51046188 -187.57768344 462.15421033 -192.88989258 468.75830078 C-195.36713214 471.84292308 -197.82112245 474.94099533 -200.2265625 478.08203125 C-213.34792638 495.18896347 -228.28094476 508.87055876 -250.375 512.375 C-271.61754738 514.23190615 -289.40517694 510.68433736 -306.5625 497.5625 C-319.10117931 487.02446305 -329.29838933 471.99887268 -331.375 455.375 C-332.8400936 435.42501463 -330.81337527 415.96694183 -317.72265625 399.96875 C-315.08184886 396.94868269 -312.27117082 394.15032341 -309.375 391.375 C-308.63378906 390.66085937 -307.89257812 389.94671875 -307.12890625 389.2109375 C-301.97469698 384.46339062 -296.40321281 380.24237178 -290.828125 376.0078125 C-287.33581045 373.35389128 -283.88290057 370.65192669 -280.4375 367.9375 C-279.85653564 367.48012451 -279.27557129 367.02274902 -278.67700195 366.55151367 C-277.49821761 365.6232434 -276.31958825 364.69477628 -275.14111328 363.76611328 C-272.22128942 361.46625755 -269.29793858 359.17089478 -266.375 356.875 C-265.79685547 356.42060547 -265.21871094 355.96621094 -264.62304688 355.49804688 C-261.72036841 353.21667751 -258.81649725 350.93685835 -255.91015625 348.66015625 C-250.55804902 344.46499658 -245.21857675 340.2567142 -239.91992188 335.99414062 C-233.98828649 331.22263582 -228.00165005 326.53960272 -221.9375 321.9375 C-215.65038217 317.16501572 -209.49658029 312.25671826 -203.39477539 307.25024414 C-198.62986464 303.35582906 -193.77941465 299.59175341 -188.875 295.875 C-183.03123 291.44177192 -177.26061959 286.93174768 -171.5625 282.3125 C-170.89863281 281.77625 -170.23476562 281.24 -169.55078125 280.6875 C-168.92945313 280.18089844 -168.308125 279.67429687 -167.66796875 279.15234375 C-167.1268042 278.71140381 -166.58563965 278.27046387 -166.02807617 277.81616211 C-164.04936987 276.09111362 -162.22428287 274.23719651 -160.375 272.375 C-160.6882019 271.35293457 -161.00140381 270.33086914 -161.32409668 269.27783203 C-164.27896888 259.63005934 -167.22207161 249.97876477 -170.15378571 240.32392883 C-171.66126676 235.36078247 -173.17281919 230.39895434 -174.69384766 225.43994141 C-176.16246454 220.65126322 -177.62016144 215.8593841 -179.07044983 211.06512451 C-179.62475069 209.2395899 -180.1829295 207.415228 -180.74510193 205.59210205 C-181.53382849 203.03187726 -182.30847224 200.46777198 -183.08007812 197.90234375 C-183.31384659 197.15499466 -183.54761505 196.40764557 -183.78846741 195.63764954 C-185.5121834 189.82479643 -186.57031396 184.4313773 -184.28566647 178.58961105 C-181.84668586 174.48613505 -178.85367873 171.44178373 -175.47340393 168.09918213 C-174.76720836 167.38901215 -174.06101279 166.67884218 -173.33341736 165.9471519 C-170.96837295 163.57249323 -168.59276862 161.2086936 -166.21704102 158.84472656 C-164.51804652 157.14330387 -162.81969808 155.44123583 -161.12194824 153.73857117 C-156.98985007 149.59804219 -152.85081042 145.46453425 -148.70842142 141.33430728 C-143.88436 136.52388151 -139.06795417 131.70582085 -134.25176405 126.88751659 C-125.65905004 118.29161457 -117.05893478 109.70315528 -108.45483398 101.11865234 C-100.10564045 92.78847106 -91.76244096 84.45234431 -83.42553711 76.10986328 C-74.34497828 67.02324776 -65.26131513 57.93975789 -56.17204422 48.86185622 C-55.20308902 47.89410831 -54.23413448 46.92635975 -53.26518059 45.95861053 C-52.78843732 45.48247081 -52.31169406 45.00633108 -51.82050403 44.51576288 C-48.46036538 41.1595042 -45.10236805 37.80111215 -41.74511909 34.4419632 C-37.22825047 29.92275197 -32.70596339 25.40900822 -28.18000031 20.8989048 C-26.51739209 19.24054766 -24.85648782 17.58048022 -23.19739342 15.91860771 C-20.93737438 13.6553782 -18.67132309 11.39836912 -16.40357971 9.1428833 C-15.74414338 8.47966765 -15.08470705 7.81645199 -14.4052878 7.1331389 C-13.4921755 6.22877489 -13.4921755 6.22877489 -12.56061649 5.3061409 C-11.77703474 4.52385931 -11.77703474 4.52385931 -10.97762305 3.72577405 C-7.49886419 0.79369517 -4.50015945 0.06302744 0 0 Z " fill="#4DC979" transform="translate(331.375,-0.375)"/>
<path d="M0 0 C1.37285156 -0.04253906 1.37285156 -0.04253906 2.7734375 -0.0859375 C9.41517386 0.98765824 14.12215994 6.5860133 18.67303467 11.16906738 C19.35870333 11.85161606 20.04437199 12.53416474 20.75081849 13.23739672 C23.0401496 15.51876986 25.32228838 17.80720176 27.60449219 20.09570312 C29.2470172 21.73551736 30.88996723 23.37490597 32.53330994 25.01390076 C36.99011743 29.46159384 41.44057931 33.91558616 45.88965893 38.37100792 C50.54488591 43.03129804 55.20499014 47.68670695 59.86431885 52.34289551 C68.18691542 60.66122143 76.50406018 68.98497965 84.81943181 77.31052715 C92.35938744 84.85942377 99.90457968 92.403053 107.45361328 99.94287109 C116.22374683 108.70230346 124.99051364 117.46508297 133.75234151 126.23282385 C138.3892295 130.87283294 143.02746549 135.51147283 147.66921234 140.1466217 C152.03050174 144.50214435 156.38688965 148.86251022 160.73950386 153.22670174 C162.33980453 154.82965224 163.94181947 156.43089335 165.54564476 158.03031731 C167.73004509 160.20927387 169.90822521 162.39426249 172.0848999 164.58093262 C172.72476987 165.21634114 173.36463983 165.85174966 174.02389979 166.50641298 C174.89691324 167.38724967 174.89691324 167.38724967 175.78756332 168.28588104 C176.29085781 168.78950023 176.79415229 169.29311942 177.31269813 169.8119998 C180.21942733 173.27402208 180.93740751 176.28089621 181 180.75 C181.02835938 181.66523438 181.05671875 182.58046875 181.0859375 183.5234375 C180.13658396 189.39655687 175.71305932 193.53738263 171.63973999 197.61422729 C171.15179069 198.10529657 170.66384139 198.59636585 170.16110575 199.10231602 C168.5383765 200.73297006 166.90865622 202.35644369 165.27880859 203.97998047 C164.10865025 205.15285098 162.93891735 206.32614608 161.76957703 207.49983215 C158.60295646 210.67554802 155.43006953 213.84493224 152.25572538 217.01292562 C148.93446361 220.32911742 145.61809146 223.65019333 142.30093384 226.9704895 C136.73448843 232.5405696 131.16384734 238.10642744 125.59082031 243.66992188 C119.14089023 250.10894701 112.69822559 256.55517442 106.25924623 263.00514877 C100.73164417 268.54181239 95.20017226 274.0745871 89.66541731 279.60410035 C86.35903714 282.90735733 83.05403551 286.21196311 79.75251389 289.52007675 C76.65277529 292.62557246 73.54822392 295.72617341 70.43981361 298.82298851 C69.29721231 299.96293536 68.15632793 301.10460598 67.01725197 302.24807549 C65.46815769 303.80259524 63.91310033 305.35088534 62.35629272 306.89767456 C61.48578466 307.76742857 60.6152766 308.63718258 59.71838951 309.53329277 C57.625 311.375 57.625 311.375 55.625 311.375 C54.16583872 309.89544606 54.16583872 309.89544606 52.47537994 307.855793 C48.84365253 303.58853747 44.99812373 299.62412004 41.0189209 295.68231201 C40.28536204 294.95142656 39.55180318 294.2205411 38.79601526 293.4675076 C36.35792549 291.03941177 33.91625074 288.61495366 31.47460938 286.19042969 C29.71802806 284.44232266 27.96170752 282.69395356 26.20562744 280.94534302 C22.9217507 277.6759865 19.63710164 274.40741154 16.35121971 271.14007071 C9.90226827 264.72749523 3.45960364 258.3086364 -2.98083496 251.88751221 C-3.99657527 250.87488204 -5.01231934 249.86225565 -6.02806711 248.84963298 C-7.56677731 247.31564789 -9.10548409 245.78165937 -10.64417627 244.24765621 C-16.43133598 238.47818466 -22.21919897 232.70941916 -28.0078125 226.94140625 C-28.53644573 226.41465007 -29.06507896 225.8878939 -29.60973138 225.34517542 C-38.19835721 216.78751631 -46.79430193 208.23724076 -55.39246398 199.68916449 C-64.22609601 190.90655488 -73.05021182 182.1144635 -81.86591482 173.31385732 C-87.30204034 167.88771096 -92.74575429 162.46940832 -98.19937938 157.06084946 C-102.36880395 152.92438269 -106.52518291 148.77497972 -110.67670441 144.62054062 C-112.38528089 142.91494914 -114.09818471 141.21368052 -115.8155899 139.51697922 C-118.15028105 137.20920362 -120.46926321 134.88673317 -122.78479004 132.55975342 C-123.47551684 131.88427294 -124.16624364 131.20879247 -124.87790155 130.51284289 C-125.49163803 129.88976788 -126.1053745 129.26669286 -126.73770905 128.62473679 C-127.54366949 127.82243735 -127.54366949 127.82243735 -128.36591196 127.00392985 C-129.375 125.375 -129.375 125.375 -129.16297704 123.31845844 C-127.97140456 120.37957636 -125.9994921 118.62483998 -123.76396179 116.38973999 C-123.03799945 115.65781604 -123.03799945 115.65781604 -122.29737121 114.91110575 C-120.67235507 113.27645838 -119.03682405 111.652759 -117.40112305 110.02880859 C-116.23443599 108.85969383 -115.06839515 107.68993389 -113.9029541 106.51957703 C-110.73412855 103.34133543 -107.55595254 100.17259831 -104.37577033 97.00572538 C-101.05097792 93.6922388 -97.73389136 90.37105404 -94.41572571 87.05093384 C-88.84134833 81.47567315 -83.26101569 75.9064285 -77.67700195 70.34082031 C-71.2194769 63.90445822 -64.77081994 57.4593171 -58.32698983 51.00924623 C-52.13110599 44.8076689 -45.92956826 38.61177685 -39.72522926 32.41865921 C-37.08361883 29.78169547 -34.44390493 27.1428544 -31.80566978 24.50251389 C-28.69868244 21.39364378 -25.58674759 18.28981191 -22.47090912 15.18981361 C-21.32754969 14.05069916 -20.18588465 12.90988112 -19.04603767 11.76725197 C-17.49092955 10.20892439 -15.92981049 8.65687917 -14.36698914 7.10629272 C-13.05814774 5.80053063 -13.05814774 5.80053063 -11.7228651 4.46838951 C-7.88677544 1.04807808 -5.11231106 0.071601 0 0 Z " fill="#FEE544" transform="translate(331.375,-0.375)"/>
<path d="M0 0 C2.22784511 1.14853328 3.71058443 2.41325115 5.4849968 4.1881609 C6.17756577 4.87371555 6.87013474 5.55927021 7.58369064 6.26559925 C8.33292801 7.02248035 9.08216537 7.77936146 9.8541069 8.55917835 C10.65127121 9.35269199 11.44843552 10.14620564 12.26975632 10.96376514 C14.90803771 13.59392767 17.5352885 16.23481452 20.16221237 18.87631702 C21.98965343 20.70427655 23.81761246 22.5317184 25.64606857 24.35866261 C29.47895005 28.19163387 33.30676799 32.02955612 37.13047409 35.87167835 C41.54917519 40.31153933 45.97663183 44.74251511 50.40904343 49.16868573 C54.67457543 53.42851932 58.93434889 57.69405392 63.19147491 61.96229076 C65.00266961 63.77733906 66.81522008 65.59103549 68.62913513 67.40336514 C71.16222341 69.93608317 73.68872294 72.47519195 76.2134819 75.0162096 C76.96676773 75.76701801 77.72005356 76.51782642 78.49616623 77.2913866 C79.52656021 78.3324078 79.52656021 78.3324078 80.57777023 79.39445972 C81.17542757 79.99416993 81.77308491 80.59388014 82.38885307 81.21176338 C85.42991913 84.76345511 86.21450045 87.72296697 86.27939987 92.35678577 C86.30775925 93.27202015 86.33611862 94.18725452 86.36533737 95.13022327 C85.41598383 101.00334265 80.99245919 105.14416841 76.91913986 109.22101307 C76.43119056 109.71208235 75.94324126 110.20315163 75.44050562 110.7091018 C73.81777637 112.33975583 72.1880561 113.96322947 70.55820847 115.58676624 C69.38805012 116.75963676 68.21831722 117.93293186 67.0489769 119.10661793 C63.88235633 122.28233379 60.7094694 125.45171802 57.53512526 128.6197114 C54.21386348 131.93590319 50.89749134 135.25697911 47.58033371 138.57727528 C42.01388831 144.14735537 36.44324721 149.71321321 30.87022018 155.27670765 C24.4202901 161.71573278 17.97762547 168.16196019 11.5386461 174.61193454 C6.01104404 180.14859816 0.47957213 185.68137287 -5.05518281 191.21088612 C-8.36156299 194.51414311 -11.66656462 197.81874888 -14.96808624 201.12686253 C-18.06782484 204.23235824 -21.17237621 207.33295919 -24.28078651 210.42977428 C-25.42338782 211.56972113 -26.5642722 212.71139175 -27.70334816 213.85486126 C-29.25244244 215.40938102 -30.80749979 216.95767112 -32.3643074 218.50446033 C-33.23481546 219.37421434 -34.10532352 220.24396835 -35.00221062 221.14007854 C-37.09560013 222.98178577 -37.09560013 222.98178577 -39.09560013 222.98178577 C-40.51990986 221.53802967 -40.51990986 221.53802967 -42.18326187 219.52621937 C-46.13933468 214.87798743 -50.36863261 210.57502726 -54.69301224 206.27084827 C-55.93812576 205.02551571 -55.93812576 205.02551571 -57.2083931 203.75502491 C-59.92754405 201.0365655 -62.65021001 198.32165622 -65.37294388 195.60678577 C-67.26887934 193.71271719 -69.16461636 191.81845205 -71.06009293 189.92392445 C-75.52380512 185.46330647 -79.99005768 181.00524128 -84.45725399 176.54811287 C-89.54758401 171.46900365 -94.63503682 166.38701659 -99.72226322 161.30479908 C-110.17686862 150.86061476 -120.63503966 140.42000578 -131.09560013 129.98178577 C-125.53224504 123.21498776 -119.3627973 117.07886601 -113.18690872 110.88022327 C-111.98053262 109.66593375 -110.77433523 108.45146666 -109.56830215 107.23683643 C-105.63060801 103.27310337 -101.68761855 99.31466075 -97.74403763 95.35678577 C-96.3839196 93.99130385 -95.0238084 92.62581513 -93.66370392 91.26031971 C-88.01080611 85.58583532 -82.35648662 79.91277394 -76.69843483 74.24342823 C-68.59513941 66.1238469 -60.50048891 57.99585822 -52.41748369 49.85607624 C-46.72670257 44.1266853 -41.02645364 38.40682601 -35.31898558 32.69405842 C-31.91115854 29.28257066 -28.50767923 25.86698966 -25.11422729 22.4411974 C-21.92883668 19.2258779 -18.73194595 16.02246918 -15.52564812 12.82800198 C-14.34898713 11.65156288 -13.17662771 10.47080389 -12.00884819 9.28554821 C-10.41907576 7.67327912 -8.81480795 6.07702027 -7.2057991 4.48398304 C-5.86245278 3.1356715 -5.86245278 3.1356715 -4.49196815 1.76012135 C-2.09560013 -0.01821423 -2.09560013 -0.01821423 0 0 Z " fill="#FEC12E" transform="translate(426.0956001281738,88.01821422576904)"/>
<path d="M0 0 C3.50476951 1.75238475 5.2153879 2.96014396 7.90449524 5.63034058 C9.05082176 6.76170441 9.05082176 6.76170441 10.2203064 7.91592407 C11.04906281 8.74401581 11.87781921 9.57210754 12.73168945 10.42529297 C13.6117012 11.2969812 14.49171295 12.16866943 15.39839172 13.06677246 C17.80700345 15.45542346 20.210937 17.84857916 22.61212564 20.24467993 C24.11201922 21.74092854 25.61320226 23.23587102 27.11482811 24.73038101 C32.35155782 29.94263528 37.58255927 35.16056822 42.80883789 40.38330078 C47.68451937 45.25534021 52.57319707 50.11406986 57.46791679 54.96697509 C61.66872963 59.13315085 65.85992454 63.3088402 70.04380387 67.49202073 C72.54345193 69.99087424 75.04695329 72.48555438 77.56035805 74.97057724 C80.35925129 77.73856451 83.13808671 80.52615366 85.9152832 83.31591797 C87.17359955 84.55198288 87.17359955 84.55198288 88.45733643 85.8130188 C89.58251427 86.9528421 89.58251427 86.9528421 90.73042297 88.11569214 C91.38984044 88.77309828 92.04925791 89.43050442 92.72865772 90.10783195 C94 92 94 92 93.85278606 94.10605049 C92.5669709 96.96171276 90.53966621 98.24642095 88 100 C80.50734478 102.49755174 73.92741254 100.39345163 66.6953125 98.0703125 C65.21699699 97.61089516 65.21699699 97.61089516 63.70881653 97.14219666 C60.51100077 96.14642786 57.31814779 95.1356258 54.125 94.125 C50.81954553 93.09249594 47.51282208 92.06413197 44.20597839 91.03608704 C41.99254896 90.34778314 39.77950525 89.65823759 37.56684875 88.967453 C27.7198954 85.89688681 17.83911406 82.9512348 7.9375 80.0625 C6.49299975 79.64014204 5.048501 79.21777894 3.60400391 78.79541016 C0.40354334 77.86058949 -2.79785917 76.92905117 -6 76 C-8.70721964 78.66721566 -11.36520574 81.29686789 -13.7265625 84.27734375 C-14.19521729 84.86588135 -14.66387207 85.45441895 -15.14672852 86.06079102 C-15.8784729 86.98976196 -15.8784729 86.98976196 -16.625 87.9375 C-17.14570068 88.59355225 -17.66640137 89.24960449 -18.20288086 89.92553711 C-19.80568651 91.94741496 -21.40358475 93.97307401 -23 96 C-23.71712158 96.90927246 -23.71712158 96.90927246 -24.44873047 97.83691406 C-27.18554626 101.30860669 -29.91497074 104.78603575 -32.64111328 108.26611328 C-34.92453303 111.17966827 -37.21250803 114.08964193 -39.5 117 C-40.41668823 118.16664973 -41.3333549 119.33331639 -42.25 120.5 C-55.08333333 136.83333333 -67.91666667 153.16666667 -80.75 169.5 C-81.20366943 170.07741943 -81.65733887 170.65483887 -82.12475586 171.24975586 C-83.04215009 172.4173041 -83.95963067 173.58478449 -84.87719727 174.75219727 C-87.15844245 177.6548279 -89.43821214 180.55859274 -91.71484375 183.46484375 C-96.94316607 190.13546188 -102.20268344 196.77921033 -107.51489258 203.38330078 C-109.99213214 206.46792308 -112.44612245 209.56599533 -114.8515625 212.70703125 C-127.97292638 229.81396347 -142.90594476 243.49555876 -165 247 C-188.35265156 249.0413598 -206.85127219 244.14634568 -225 229 C-224.8050841 223.30940645 -220.95454134 220.44630745 -217.12109375 216.73046875 C-216.4344313 216.04946609 -215.74776886 215.36846344 -215.04029846 214.66682434 C-212.84858519 212.49747152 -210.64336547 210.34245164 -208.4375 208.1875 C-206.94765561 206.71772085 -205.45871203 205.24702799 -203.97070312 203.77539062 C-200.32416375 200.17291443 -196.66544979 196.58322936 -193 193 C-193.42514893 192.20480957 -193.85029785 191.40961914 -194.28833008 190.59033203 C-194.83900146 189.53185059 -195.38967285 188.47336914 -195.95703125 187.3828125 C-196.78037964 185.81877686 -196.78037964 185.81877686 -197.62036133 184.22314453 C-200.20842689 178.17684448 -200.11100208 172.44995383 -198.109375 166.234375 C-194.88813028 159.06173676 -190.45847121 154.99527185 -183.75 151.125 C-175.93672844 148.78101853 -169.24653399 149.25875855 -161.97265625 152.9296875 C-161.32167969 153.28289062 -160.67070312 153.63609375 -160 154 C-158.02 154.99 -158.02 154.99 -156 156 C-104.52 104.52 -53.04 53.04 0 0 Z " fill="#1E9E60" transform="translate(246,265)"/>
<path d="M0 0 C0.67101368 0.67129126 1.34202736 1.34258251 2.03337479 2.03421593 C5.50856008 5.50935432 8.98739978 8.98082911 12.46600342 12.45254517 C14.00983865 13.99344706 15.5536666 15.53435626 17.0974884 17.07527161 C17.9191984 17.8954307 18.74090839 18.71558979 19.58751869 19.56060219 C37.91043789 37.84927059 56.22827467 56.14302041 74.54251264 74.44038198 C77.24623972 77.14160803 79.95001062 79.84279022 82.65380859 82.54394531 C83.19202005 83.08163215 83.73023151 83.61931898 84.2847524 84.17329936 C93.02049237 92.90031627 101.75975637 101.62379611 110.5003036 110.345998 C119.47532979 119.30234366 128.44657529 128.26246314 137.4142983 137.22612131 C142.94601302 142.75508911 148.48067674 148.2810708 154.01912579 153.80329286 C158.25681709 158.02919651 162.48924625 162.26033016 166.71969795 166.49348259 C168.45908877 168.23232108 170.2002071 169.96943341 171.94313622 171.70472527 C174.3140203 174.0657245 176.67872957 176.43273699 179.04193115 178.80142212 C179.73986935 179.49353464 180.43780756 180.18564716 181.1568954 180.89873278 C181.78629755 181.53211703 182.41569971 182.16550128 183.06417465 182.81807899 C183.61091961 183.36406451 184.15766456 183.91005002 184.72097754 184.47258055 C186 186 186 186 187 189 C171.49 204.51 155.98 220.02 140 236 C50.90844727 146.90844727 50.90844727 146.90844727 48.81964779 144.81933784 C47.37893858 143.37887403 45.93726784 141.93937192 44.49525452 140.50021362 C40.82289109 136.82055168 37.16728471 133.12434372 33.50952148 129.43017578 C24.93938271 120.77837422 16.35665281 112.13919888 7.7664175 103.50735664 C2.56996752 98.28505377 -2.62164252 93.0580979 -7.80249023 87.8203125 C-12.3326986 83.24034442 -16.87156283 78.66916769 -21.4211306 74.10842693 C-23.82656609 71.69646806 -26.22739039 69.28028799 -28.61786079 66.85348892 C-31.28012892 64.15515518 -33.95740077 61.47264457 -36.63891602 58.79345703 C-37.8258329 57.57957558 -37.8258329 57.57957558 -39.03672791 56.34117126 C-40.1321843 55.25602486 -40.1321843 55.25602486 -41.24977112 54.1489563 C-41.88115777 53.51296068 -42.51254442 52.87696507 -43.163064 52.22169685 C-44.93460495 50.7659199 -44.93460495 50.7659199 -47.15748501 51.20089531 C-50.21885511 52.52862139 -50.84675318 54.94587458 -52.18359375 57.85546875 C-53.20609815 60.54137744 -53.71448032 63.14480319 -54 66 C-54.33 66 -54.66 66 -55 66 C-55.36365025 58.96942859 -54.4598513 54.83992348 -49.66511536 49.30435181 C-48.74800278 48.39390106 -47.8308902 47.48345032 -46.88598633 46.54541016 C-46.37836258 46.03734833 -45.87073883 45.5292865 -45.34773254 45.00582886 C-43.68284949 43.34302109 -42.00762617 41.69106942 -40.33203125 40.0390625 C-39.16981115 38.88244283 -38.00825549 37.72515515 -36.84733582 36.56723022 C-33.80107919 33.53238712 -30.74591948 30.50666459 -27.68878174 27.48278809 C-24.56636308 24.39114568 -21.45249822 21.29091409 -18.33789062 18.19140625 C-12.23357352 12.11919164 -6.11981879 6.0565909 0 0 Z " fill="#D6D2C4" transform="translate(201,123)"/>
<path d="M0 0 C3.2173308 1.41748259 5.37187994 3.12078516 7.85307312 5.59910583 C8.98244293 6.72001617 8.98244293 6.72001617 10.1346283 7.86357117 C11.35902367 9.09403923 11.35902367 9.09403923 12.6081543 10.34936523 C13.47519989 11.21290619 14.34224548 12.07644714 15.23556519 12.96615601 C17.60895757 15.33225666 19.97776401 17.70276857 22.34433341 20.0756824 C24.82192405 22.55833911 27.30439355 25.03610954 29.78608704 27.5146637 C33.95157313 31.6765126 38.11282744 35.84255779 42.27172852 40.01098633 C47.08157177 44.8317208 51.89858736 49.6451983 56.71937817 54.45498317 C60.85815767 58.58469128 64.99303257 62.71827848 69.12465984 66.85514218 C71.59240628 69.32600821 74.06148782 71.79549933 76.53409386 74.26150322 C79.28847692 77.00904455 82.03465222 79.76469853 84.7800293 82.52124023 C85.60236557 83.33952805 86.42470184 84.15781586 87.2719574 85.00090027 C88.388638 86.12604034 88.388638 86.12604034 89.52787781 87.27391052 C90.50317711 88.25034091 90.50317711 88.25034091 91.49817944 89.24649715 C93 91 93 91 94 94 C78.49 109.51 62.98 125.02 47 141 C15.33333333 109.33333333 -16.33333333 77.66666667 -48 46 C-47.26811966 45.59343674 -46.53623932 45.18687347 -45.78218079 44.76799011 C-42.95644429 42.97232169 -40.84187493 41.08282994 -38.48510742 38.7121582 C-37.62459274 37.85149246 -36.76407806 36.99082672 -35.87748718 36.1040802 C-34.9627211 35.17899155 -34.04795502 34.25390289 -33.10546875 33.30078125 C-32.14898287 32.34056128 -31.19205154 31.38078484 -30.23469543 30.4214325 C-27.72650795 27.90563979 -25.22438724 25.38389751 -22.72351074 22.86083984 C-20.16633779 20.28314122 -17.60343367 17.71115468 -15.04101562 15.13867188 C-10.02174135 10.09800262 -5.00885826 5.05102141 0 0 Z " fill="#B0AC9A" transform="translate(294,218)"/>
<path d="M0 0 C8.95299083 3.50334424 12.44718145 13.57536536 16.125 21.6875 C16.54436325 22.60414429 16.54436325 22.60414429 16.97219849 23.53930664 C45.78219074 86.5220886 45.78219074 86.5220886 37.9375 109.0625 C32.57199404 121.04445854 23.82952251 129.93209388 11.7265625 135 C-0.69036624 139.55405983 -12.68655249 138.92675084 -24.890625 133.78125 C-36.74541237 127.82074238 -44.74280231 118.58288181 -49 106 C-56.3860223 79.13073962 -38.7982589 49.75065624 -28 26 C-27.5762207 25.05527832 -27.15244141 24.11055664 -26.71582031 23.13720703 C-25.53185925 20.501984 -24.33189287 17.87478639 -23.125 15.25 C-22.78017578 14.48196045 -22.43535156 13.7139209 -22.08007812 12.92260742 C-17.25506391 2.6157891 -11.23614762 -1.04099603 0 0 Z " fill="#FFA81C" transform="translate(472,291)"/>
<path d="M0 0 C5.20698506 2.48033273 8.7480142 6.34067114 12.8125 10.375 C13.61365234 11.14328125 14.41480469 11.9115625 15.24023438 12.703125 C15.99240234 13.44820312 16.74457031 14.19328125 17.51953125 14.9609375 C18.55750854 15.97873291 18.55750854 15.97873291 19.61645508 17.01708984 C21 19 21 19 20.77110195 20.9163332 C19.88109848 23.32129494 18.85715666 24.51516954 17.0459137 26.32157898 C16.4163678 26.95669403 15.7868219 27.59180908 15.13819885 28.24617004 C14.44363083 28.93152328 13.74906281 29.61687653 13.03344727 30.32299805 C12.30499603 31.05349365 11.5765448 31.78398926 10.82601929 32.53662109 C8.41334293 34.9523086 5.99008616 37.35707532 3.56640625 39.76171875 C1.89052623 41.43454189 0.21523569 43.10795577 -1.45948792 44.78193665 C-4.97146382 48.28930748 -8.48829747 51.79170598 -12.0090332 55.2902832 C-16.52996631 59.78291212 -21.04215686 64.28419337 -25.55119228 68.78876019 C-29.01040626 72.24382458 -32.4724429 75.69604794 -35.93553352 79.14722633 C-37.60063622 80.80661809 -39.26526232 82.46648821 -40.92941093 84.12683678 C-43.25168248 86.44226061 -45.57730638 88.75425954 -47.90405273 91.06518555 C-48.94286842 92.10232445 -48.94286842 92.10232445 -50.00267029 93.16041565 C-50.63503601 93.78707123 -51.26740173 94.41372681 -51.91893005 95.05937195 C-52.46886344 95.60633067 -53.01879683 96.15328939 -53.58539486 96.71682262 C-57.14310845 99.94399709 -61.36786024 99.44700521 -65.94140625 99.4140625 C-70.64719178 98.77700852 -73.14719872 96.68669704 -76 93 C-78.32542219 89.05689281 -78.53626484 85.51994652 -78 81 C-75.0590941 74.84868351 -70.53837541 70.11978659 -65.73120117 65.390625 C-65.01846039 64.67744614 -64.3057196 63.96426727 -63.57138062 63.22947693 C-61.23562334 60.8957941 -58.88945312 58.57289229 -56.54296875 56.25 C-54.91278139 54.62541335 -53.28325919 53.000159 -51.65437317 51.37426758 C-47.3817426 47.11304827 -43.10017749 42.86091858 -38.81665039 38.61065674 C-34.44066467 34.26545205 -30.07324207 29.91165897 -25.70507812 25.55859375 C-17.14504963 17.03066378 -8.57555203 8.51231761 0 0 Z " fill="#FFC12E" transform="translate(374,37)"/>
<path d="M0 0 C2.67626968 1.10453083 4.22208662 2.76106618 6.24327087 4.82556152 C7.04248962 5.63444824 7.84170837 6.44333496 8.66514587 7.2767334 C9.49014587 8.12687012 10.31514587 8.97700684 11.16514587 9.85290527 C12.425849 11.13391113 12.425849 11.13391113 13.71202087 12.4407959 C15.78662185 14.55075939 17.85390419 16.66740236 19.91514587 18.79040527 C18.50750691 21.97291373 16.83276828 24.12968732 14.38682556 26.59338379 C13.66557495 27.32416641 12.94432434 28.05494904 12.20121765 28.80787659 C11.42103271 29.58715012 10.64084778 30.36642365 9.83702087 31.16931152 C9.03282715 31.97779037 8.22863342 32.78626923 7.40007019 33.61924744 C5.69785216 35.32720631 3.99300985 37.03255316 2.28575134 38.73547363 C-0.31973368 41.33780314 -2.9116334 43.95314749 -5.50282288 46.56970215 C-7.15956338 48.22871614 -8.81709 49.88694553 -10.47547913 51.54431152 C-11.63361115 52.71625816 -11.63361115 52.71625816 -12.81513977 53.91188049 C-17.60358436 58.65968212 -21.59595194 62.34636318 -28.52235413 63.22790527 C-34.24575066 62.52503202 -37.58167969 60.37066558 -41.52235413 56.22790527 C-43.69712464 51.44341014 -44.5024139 46.90974438 -43.08485413 41.79040527 C-36.70078356 33.39532321 -28.66315835 26.07611929 -21.25013733 18.60559082 C-19.67089288 17.00963132 -18.0970546 15.40830552 -16.52845764 13.80187988 C-14.25315885 11.47216509 -11.96216113 9.15901367 -9.66688538 6.84899902 C-8.9657814 6.12522568 -8.26467743 5.40145233 -7.54232788 4.65574646 C-6.88451828 4.0007869 -6.22670868 3.34582733 -5.54896545 2.67102051 C-4.68794975 1.79787453 -4.68794975 1.79787453 -3.80953979 0.90708923 C-2.08485413 -0.20959473 -2.08485413 -0.20959473 0 0 Z " fill="#FFA81C" transform="translate(455.08485412597656,117.2095947265625)"/>
<path d="M0 0 C4.18777862 7.25383083 7.634725 13.49104679 6 22 C3.62245983 29.76159939 -0.43297034 35.79120541 -7.5625 39.875 C-13.36274521 42.52949558 -18.71971135 43.0686355 -25 42 C-28.55332353 40.65122536 -31.77185149 38.99973802 -35 37 C-35 33 -35 33 -33.76065063 31.26617432 C-33.18044159 30.68881531 -32.60023254 30.1114563 -32.00244141 29.51660156 C-31.34821198 28.85621887 -30.69398254 28.19583618 -30.01992798 27.51544189 C-29.30436737 26.81425232 -28.58880676 26.11306274 -27.8515625 25.390625 C-26.7599733 24.30041046 -26.7599733 24.30041046 -25.64633179 23.18817139 C-24.10585337 21.65373665 -22.56051553 20.12416743 -21.01074219 18.59912109 C-18.63095838 16.25586692 -16.2675863 13.89698449 -13.90625 11.53515625 C-12.40979529 10.04853122 -10.91242991 8.5628222 -9.4140625 7.078125 C-8.70255035 6.3688385 -7.99103821 5.659552 -7.25796509 4.92877197 C-6.59743134 4.28099792 -5.93689758 3.63322388 -5.25634766 2.96582031 C-4.67454742 2.39164368 -4.09274719 1.81746704 -3.49331665 1.22589111 C-2 0 -2 0 0 0 Z " fill="#217351" transform="translate(91,423)"/>
<path d="M0 0 C0.99 0.33 1.98 0.66 3 1 C2.401875 1.53625 1.80375 2.0725 1.1875 2.625 C-2.77410361 6.92616963 -4.3150809 11.24667958 -5 17 C-5.33 17 -5.66 17 -6 17 C-6.33453158 10.53238945 -5.84313318 6.15903686 -1.3125 1.125 C-0.879375 0.75375 -0.44625 0.3825 0 0 Z " fill="#CBD3BE" transform="translate(152,172)"/>
<path d="M0 0 C0.66 0.33 1.32 0.66 2 1 C-2.42203809 4.83243301 -5.11483446 7.16205189 -11.1875 7.0625 C-13.0746875 7.0315625 -13.0746875 7.0315625 -15 7 C-15 6.67 -15 6.34 -15 6 C-14.33613281 5.81824219 -13.67226563 5.63648438 -12.98828125 5.44921875 C-8.19817211 4.08561104 -4.24544754 2.65340471 0 0 Z " fill="#ADB5A0" transform="translate(338,359)"/>
</svg>
